<mxfile host="app.diagrams.net" modified="2024-06-07T17:02:37.818Z" agent="Mozilla/5.0 (Windows NT 10.0; Win64; x64) AppleWebKit/537.36 (KHTML, like Gecko) Chrome/123.0.0.0 Safari/537.36 Edg/123.0.0.0" etag="ex-Ap210_HHCBn16Y5ng" version="24.5.2" type="github">
  <diagram name="Page-1" id="Gq5iE_ZRQF1Big1JOH7S">
    <mxGraphModel dx="3285" dy="2102" grid="1" gridSize="27" guides="1" tooltips="1" connect="1" arrows="1" fold="1" page="1" pageScale="1" pageWidth="827" pageHeight="1169" math="0" shadow="0">
      <root>
        <mxCell id="0" />
        <mxCell id="1" parent="0" />
        <mxCell id="3N8dPOOKqorthrCRvGdw-47" value="Adm:Admin" style="shape=umlLifeline;perimeter=lifelinePerimeter;whiteSpace=wrap;html=1;container=0;dropTarget=0;collapsible=0;recursiveResize=0;outlineConnect=0;portConstraint=eastwest;newEdgeStyle={&quot;edgeStyle&quot;:&quot;elbowEdgeStyle&quot;,&quot;elbow&quot;:&quot;vertical&quot;,&quot;curved&quot;:0,&quot;rounded&quot;:0};fillColor=default;strokeColor=#000000;gradientColor=#CCE5FF;" parent="1" vertex="1">
          <mxGeometry x="-798" y="-1020" width="100" height="720" as="geometry" />
        </mxCell>
        <mxCell id="3N8dPOOKqorthrCRvGdw-48" value="" style="html=1;points=[];perimeter=orthogonalPerimeter;outlineConnect=0;targetShapes=umlLifeline;portConstraint=eastwest;newEdgeStyle={&quot;edgeStyle&quot;:&quot;elbowEdgeStyle&quot;,&quot;elbow&quot;:&quot;vertical&quot;,&quot;curved&quot;:0,&quot;rounded&quot;:0};" parent="3N8dPOOKqorthrCRvGdw-47" vertex="1">
          <mxGeometry x="45" y="110" width="10" height="600" as="geometry" />
        </mxCell>
        <mxCell id="3N8dPOOKqorthrCRvGdw-49" value="Clb:Collaborateur" style="shape=umlLifeline;perimeter=lifelinePerimeter;whiteSpace=wrap;html=1;container=0;dropTarget=0;collapsible=0;recursiveResize=0;outlineConnect=0;portConstraint=eastwest;newEdgeStyle={&quot;edgeStyle&quot;:&quot;elbowEdgeStyle&quot;,&quot;elbow&quot;:&quot;vertical&quot;,&quot;curved&quot;:0,&quot;rounded&quot;:0};gradientColor=#CCE5FF;" parent="1" vertex="1">
          <mxGeometry x="-120" y="-1020" width="100" height="720" as="geometry" />
        </mxCell>
        <mxCell id="3N8dPOOKqorthrCRvGdw-50" value="&lt;b&gt;opt&lt;/b&gt;" style="shape=umlFrame;whiteSpace=wrap;html=1;pointerEvents=0;width=50;height=20;fillColor=#dae8fc;strokeColor=#6c8ebf;" parent="1" vertex="1">
          <mxGeometry x="-825" y="-938.72" width="835" height="492.73" as="geometry" />
        </mxCell>
        <mxCell id="3N8dPOOKqorthrCRvGdw-51" value="&lt;b&gt;[Authentifier = True]&lt;/b&gt;" style="text;html=1;align=center;verticalAlign=middle;resizable=0;points=[];autosize=1;strokeColor=none;fillColor=none;" parent="1" vertex="1">
          <mxGeometry x="-694.9963414634146" y="-941.00375" width="140" height="30" as="geometry" />
        </mxCell>
        <mxCell id="3N8dPOOKqorthrCRvGdw-52" value="" style="group" parent="1" vertex="1" connectable="0">
          <mxGeometry x="-819.91" y="-836" width="366.59" height="199" as="geometry" />
        </mxCell>
        <mxCell id="3N8dPOOKqorthrCRvGdw-53" value="&lt;b&gt;opt&lt;/b&gt;" style="shape=umlFrame;whiteSpace=wrap;html=1;pointerEvents=0;width=50;height=20;fillColor=#dae8fc;strokeColor=#6c8ebf;" parent="3N8dPOOKqorthrCRvGdw-52" vertex="1">
          <mxGeometry x="10" y="76" width="320" height="65" as="geometry" />
        </mxCell>
        <mxCell id="3N8dPOOKqorthrCRvGdw-54" value="" style="html=1;points=[];perimeter=orthogonalPerimeter;outlineConnect=0;targetShapes=umlLifeline;portConstraint=eastwest;newEdgeStyle={&quot;edgeStyle&quot;:&quot;elbowEdgeStyle&quot;,&quot;elbow&quot;:&quot;vertical&quot;,&quot;curved&quot;:0,&quot;rounded&quot;:0};" parent="3N8dPOOKqorthrCRvGdw-52" vertex="1">
          <mxGeometry x="72.91" y="27" width="10" height="68" as="geometry" />
        </mxCell>
        <mxCell id="3N8dPOOKqorthrCRvGdw-73" value="" style="html=1;points=[];perimeter=orthogonalPerimeter;outlineConnect=0;targetShapes=umlLifeline;portConstraint=eastwest;newEdgeStyle={&quot;edgeStyle&quot;:&quot;elbowEdgeStyle&quot;,&quot;elbow&quot;:&quot;vertical&quot;,&quot;curved&quot;:0,&quot;rounded&quot;:0};" parent="3N8dPOOKqorthrCRvGdw-52" vertex="1">
          <mxGeometry x="284.90999999999997" y="37" width="10" height="58" as="geometry" />
        </mxCell>
        <mxCell id="3N8dPOOKqorthrCRvGdw-80" value="" style="endArrow=open;endFill=1;html=1;rounded=0;entryX=0;entryY=1.207;entryDx=0;entryDy=0;entryPerimeter=0;" parent="3N8dPOOKqorthrCRvGdw-52" edge="1">
          <mxGeometry width="160" relative="1" as="geometry">
            <mxPoint x="82.90999999999997" y="94.00600000000009" as="sourcePoint" />
            <mxPoint x="284.90999999999997" y="94.00600000000009" as="targetPoint" />
          </mxGeometry>
        </mxCell>
        <mxCell id="3N8dPOOKqorthrCRvGdw-81" value="&lt;span style=&quot;font-size: 12px; background-color: rgb(251, 251, 251);&quot;&gt;Solder(Bc)&lt;/span&gt;" style="edgeLabel;html=1;align=center;verticalAlign=middle;resizable=0;points=[];" parent="3N8dPOOKqorthrCRvGdw-80" vertex="1" connectable="0">
          <mxGeometry x="0.0786" y="-1" relative="1" as="geometry">
            <mxPoint as="offset" />
          </mxGeometry>
        </mxCell>
        <mxCell id="3N8dPOOKqorthrCRvGdw-57" value="" style="html=1;points=[];perimeter=orthogonalPerimeter;outlineConnect=0;targetShapes=umlLifeline;portConstraint=eastwest;newEdgeStyle={&quot;edgeStyle&quot;:&quot;elbowEdgeStyle&quot;,&quot;elbow&quot;:&quot;vertical&quot;,&quot;curved&quot;:0,&quot;rounded&quot;:0};" parent="1" vertex="1">
          <mxGeometry x="-305" y="-681" width="10.18" height="44" as="geometry" />
        </mxCell>
        <mxCell id="3N8dPOOKqorthrCRvGdw-58" value="&lt;b&gt;Authentification&lt;/b&gt;" style="text;html=1;align=center;verticalAlign=middle;resizable=0;points=[];autosize=1;strokeColor=none;fillColor=none;" parent="1" vertex="1">
          <mxGeometry x="-194.00467166979354" y="-788.0035914634146" width="108" height="27" as="geometry" />
        </mxCell>
        <mxCell id="3N8dPOOKqorthrCRvGdw-59" value="" style="html=1;points=[];perimeter=orthogonalPerimeter;outlineConnect=0;targetShapes=umlLifeline;portConstraint=eastwest;newEdgeStyle={&quot;edgeStyle&quot;:&quot;elbowEdgeStyle&quot;,&quot;elbow&quot;:&quot;vertical&quot;,&quot;curved&quot;:0,&quot;rounded&quot;:0};" parent="1" vertex="1">
          <mxGeometry x="-75" y="-916" width="10" height="420" as="geometry" />
        </mxCell>
        <mxCell id="3N8dPOOKqorthrCRvGdw-60" value="" style="group;labelBackgroundColor=none;textShadow=0;fontColor=default;labelBorderColor=default;fillColor=none;" parent="1" vertex="1" connectable="0">
          <mxGeometry x="-760" y="-913" width="720" height="114" as="geometry" />
        </mxCell>
        <mxCell id="3N8dPOOKqorthrCRvGdw-61" value="&lt;b&gt;ref&lt;/b&gt;" style="shape=umlFrame;whiteSpace=wrap;html=1;pointerEvents=0;width=50;height=20;fillColor=#dae8fc;strokeColor=#6c8ebf;" parent="3N8dPOOKqorthrCRvGdw-60" vertex="1">
          <mxGeometry width="720" height="53.60000000000001" as="geometry" />
        </mxCell>
        <mxCell id="3N8dPOOKqorthrCRvGdw-62" value="&lt;b&gt;Validation ou archivage des utilisateurs&lt;/b&gt;" style="text;html=1;align=center;verticalAlign=middle;resizable=0;points=[];autosize=1;strokeColor=none;fillColor=none;" parent="3N8dPOOKqorthrCRvGdw-60" vertex="1">
          <mxGeometry x="218.99723187207059" y="15.403268292682931" width="243" height="27" as="geometry" />
        </mxCell>
        <mxCell id="aC3MYN7cPW-StAx3BsGw-1" value="&lt;b&gt;ref&lt;/b&gt;" style="shape=umlFrame;whiteSpace=wrap;html=1;pointerEvents=0;width=49;height=20;fillColor=#dae8fc;strokeColor=#6c8ebf;" vertex="1" parent="3N8dPOOKqorthrCRvGdw-60">
          <mxGeometry x="-9" y="67" width="252" height="47" as="geometry" />
        </mxCell>
        <mxCell id="aC3MYN7cPW-StAx3BsGw-2" value="&lt;b&gt;Ajouter Bon de caisse&lt;/b&gt;" style="text;html=1;align=center;verticalAlign=middle;resizable=0;points=[];autosize=1;strokeColor=none;fillColor=none;" vertex="1" parent="3N8dPOOKqorthrCRvGdw-60">
          <mxGeometry x="49.49723187207064" y="77.00326829268295" width="135" height="27" as="geometry" />
        </mxCell>
        <mxCell id="3N8dPOOKqorthrCRvGdw-63" value="&lt;b&gt;ref&lt;/b&gt;" style="shape=umlFrame;whiteSpace=wrap;html=1;pointerEvents=0;width=49;height=20;fillColor=#dae8fc;strokeColor=#6c8ebf;" parent="1" vertex="1">
          <mxGeometry x="-226" y="-827" width="205" height="81" as="geometry" />
        </mxCell>
        <mxCell id="3N8dPOOKqorthrCRvGdw-64" value="&lt;b&gt;Ordre de Mission du MissionnÃ©&lt;/b&gt;" style="text;html=1;align=center;verticalAlign=middle;resizable=0;points=[];autosize=1;strokeColor=none;fillColor=none;" parent="1" vertex="1">
          <mxGeometry x="-520.0046716697935" y="-571.0035914634146" width="200" height="30" as="geometry" />
        </mxCell>
        <mxCell id="3N8dPOOKqorthrCRvGdw-65" value="&lt;b&gt;Consulter les Ordres de Mission&lt;/b&gt;" style="text;html=1;align=center;verticalAlign=middle;resizable=0;points=[];autosize=1;strokeColor=none;fillColor=none;" parent="1" vertex="1">
          <mxGeometry x="-520.0046716697935" y="-501.00359146341464" width="210" height="30" as="geometry" />
        </mxCell>
        <mxCell id="3N8dPOOKqorthrCRvGdw-66" value="C: Caisse" style="shape=umlLifeline;perimeter=lifelinePerimeter;whiteSpace=wrap;html=1;container=0;dropTarget=0;collapsible=0;recursiveResize=0;outlineConnect=0;portConstraint=eastwest;newEdgeStyle={&quot;edgeStyle&quot;:&quot;elbowEdgeStyle&quot;,&quot;elbow&quot;:&quot;vertical&quot;,&quot;curved&quot;:0,&quot;rounded&quot;:0};gradientColor=#CCE5FF;" parent="1" vertex="1">
          <mxGeometry x="-277.5" y="-681" width="100" height="385" as="geometry" />
        </mxCell>
        <mxCell id="3N8dPOOKqorthrCRvGdw-67" value="" style="html=1;points=[];perimeter=orthogonalPerimeter;outlineConnect=0;targetShapes=umlLifeline;portConstraint=eastwest;newEdgeStyle={&quot;edgeStyle&quot;:&quot;elbowEdgeStyle&quot;,&quot;elbow&quot;:&quot;vertical&quot;,&quot;curved&quot;:0,&quot;rounded&quot;:0};" parent="1" vertex="1">
          <mxGeometry x="-232.5" y="-396" width="10" height="90" as="geometry" />
        </mxCell>
        <mxCell id="3N8dPOOKqorthrCRvGdw-68" value="Alimenter la Caisse" style="html=1;verticalAlign=bottom;endArrow=block;edgeStyle=elbowEdgeStyle;elbow=horizontal;curved=0;rounded=0;" parent="1" edge="1">
          <mxGeometry x="-0.0344" y="-10" relative="1" as="geometry">
            <mxPoint x="-741" y="-390" as="sourcePoint" />
            <mxPoint x="-231" y="-390" as="targetPoint" />
            <mxPoint as="offset" />
          </mxGeometry>
        </mxCell>
        <mxCell id="3N8dPOOKqorthrCRvGdw-69" value="" style="endArrow=open;endFill=1;html=1;rounded=0;" parent="1" edge="1">
          <mxGeometry width="160" relative="1" as="geometry">
            <mxPoint x="-233.5" y="-313" as="sourcePoint" />
            <mxPoint x="-744" y="-313" as="targetPoint" />
          </mxGeometry>
        </mxCell>
        <mxCell id="3N8dPOOKqorthrCRvGdw-70" value="Bien EncaissÃ©" style="edgeLabel;html=1;align=center;verticalAlign=middle;resizable=0;points=[];" parent="3N8dPOOKqorthrCRvGdw-69" vertex="1" connectable="0">
          <mxGeometry x="0.0624" y="2" relative="1" as="geometry">
            <mxPoint x="14" as="offset" />
          </mxGeometry>
        </mxCell>
        <mxCell id="3N8dPOOKqorthrCRvGdw-71" value="&lt;b&gt;Type d&#39;Encaissement&lt;/b&gt;" style="text;html=1;align=center;verticalAlign=middle;resizable=0;points=[];autosize=1;strokeColor=none;fillColor=none;" parent="1" vertex="1">
          <mxGeometry x="-366" y="-366" width="140" height="30" as="geometry" />
        </mxCell>
        <mxCell id="3N8dPOOKqorthrCRvGdw-72" value="Bc:Bon de Caisse" style="shape=umlLifeline;perimeter=lifelinePerimeter;whiteSpace=wrap;html=1;container=0;dropTarget=0;collapsible=0;recursiveResize=0;outlineConnect=0;portConstraint=eastwest;newEdgeStyle={&quot;edgeStyle&quot;:&quot;elbowEdgeStyle&quot;,&quot;elbow&quot;:&quot;vertical&quot;,&quot;curved&quot;:0,&quot;rounded&quot;:0};gradientColor=#CCE5FF;" parent="1" vertex="1">
          <mxGeometry x="-580" y="-1019" width="100" height="719" as="geometry" />
        </mxCell>
        <mxCell id="3N8dPOOKqorthrCRvGdw-74" value="Om:Ordre de Mission" style="shape=umlLifeline;perimeter=lifelinePerimeter;whiteSpace=wrap;html=1;container=0;dropTarget=0;collapsible=0;recursiveResize=0;outlineConnect=0;portConstraint=eastwest;newEdgeStyle={&quot;edgeStyle&quot;:&quot;elbowEdgeStyle&quot;,&quot;elbow&quot;:&quot;vertical&quot;,&quot;curved&quot;:0,&quot;rounded&quot;:0};gradientColor=#CCE5FF;" parent="1" vertex="1">
          <mxGeometry x="-360" y="-1019.5" width="120" height="719.5" as="geometry" />
        </mxCell>
        <mxCell id="3N8dPOOKqorthrCRvGdw-75" value="" style="endArrow=open;endFill=1;html=1;rounded=0;" parent="1" target="3N8dPOOKqorthrCRvGdw-59" edge="1">
          <mxGeometry width="160" relative="1" as="geometry">
            <mxPoint x="-743" y="-602.7937200000001" as="sourcePoint" />
            <mxPoint x="-120" y="-602.7937200000001" as="targetPoint" />
          </mxGeometry>
        </mxCell>
        <mxCell id="3N8dPOOKqorthrCRvGdw-76" value="Notifier le BÃ©nÃ©ficiaire&amp;nbsp; par son Matricule/nomPrenom" style="edgeLabel;html=1;align=center;verticalAlign=middle;resizable=0;points=[];" parent="3N8dPOOKqorthrCRvGdw-75" vertex="1" connectable="0">
          <mxGeometry x="-0.0482" relative="1" as="geometry">
            <mxPoint x="2" as="offset" />
          </mxGeometry>
        </mxCell>
        <mxCell id="3N8dPOOKqorthrCRvGdw-77" value="CreerOm(NumBcGenere , NumOm)" style="html=1;verticalAlign=bottom;endArrow=block;edgeStyle=elbowEdgeStyle;elbow=horizontal;curved=0;rounded=0;entryX=0.491;entryY=0.057;entryDx=0;entryDy=0;entryPerimeter=0;" parent="1" edge="1">
          <mxGeometry x="-0.0344" y="-10" relative="1" as="geometry">
            <mxPoint x="-740" y="-680" as="sourcePoint" />
            <Array as="points">
              <mxPoint x="-639.5792682926829" y="-680.4125" />
            </Array>
            <mxPoint x="-305.00162000000023" y="-680.01263" as="targetPoint" />
            <mxPoint as="offset" />
          </mxGeometry>
        </mxCell>
        <mxCell id="3N8dPOOKqorthrCRvGdw-78" value="" style="endArrow=open;endFill=1;html=1;rounded=0;entryX=0.725;entryY=-0.021;entryDx=0;entryDy=0;entryPerimeter=0;" parent="1" edge="1">
          <mxGeometry width="160" relative="1" as="geometry">
            <mxPoint x="-535" y="-791.344" as="sourcePoint" />
            <mxPoint x="-739.75" y="-791.344" as="targetPoint" />
          </mxGeometry>
        </mxCell>
        <mxCell id="3N8dPOOKqorthrCRvGdw-79" value="Return NumBcGenere" style="edgeLabel;html=1;align=center;verticalAlign=middle;resizable=0;points=[];" parent="3N8dPOOKqorthrCRvGdw-78" vertex="1" connectable="0">
          <mxGeometry x="0.0744" relative="1" as="geometry">
            <mxPoint x="8" y="1" as="offset" />
          </mxGeometry>
        </mxCell>
        <mxCell id="3N8dPOOKqorthrCRvGdw-82" value="" style="endArrow=open;endFill=1;html=1;rounded=0;" parent="1" source="3N8dPOOKqorthrCRvGdw-57" edge="1">
          <mxGeometry width="160" relative="1" as="geometry">
            <mxPoint x="-310" y="-640" as="sourcePoint" />
            <mxPoint x="-745" y="-639.992" as="targetPoint" />
          </mxGeometry>
        </mxCell>
        <mxCell id="3N8dPOOKqorthrCRvGdw-83" value="Return" style="edgeLabel;html=1;align=center;verticalAlign=middle;resizable=0;points=[];" parent="3N8dPOOKqorthrCRvGdw-82" vertex="1" connectable="0">
          <mxGeometry x="0.0744" relative="1" as="geometry">
            <mxPoint x="8" y="1" as="offset" />
          </mxGeometry>
        </mxCell>
        <mxCell id="3N8dPOOKqorthrCRvGdw-84" value="&lt;b&gt;ref&lt;/b&gt;" style="shape=umlFrame;whiteSpace=wrap;html=1;pointerEvents=0;width=49;height=20;fillColor=#dae8fc;strokeColor=#6c8ebf;" parent="1" vertex="1">
          <mxGeometry x="-800" y="-590" width="789" height="60" as="geometry" />
        </mxCell>
        <mxCell id="3N8dPOOKqorthrCRvGdw-85" value="Gestion des bons de caisse et ordres de mission" style="swimlane;startSize=20;gradientColor=none;" parent="1" vertex="1">
          <mxGeometry x="-850" y="-1100" width="910" height="850" as="geometry">
            <mxRectangle x="-850" y="-1100" width="90" height="30" as="alternateBounds" />
          </mxGeometry>
        </mxCell>
        <mxCell id="3N8dPOOKqorthrCRvGdw-86" value="s: sequence model" style="shape=umlFrame;whiteSpace=wrap;html=1;pointerEvents=0;width=110;height=30;" parent="3N8dPOOKqorthrCRvGdw-85" vertex="1">
          <mxGeometry x="10" y="20" width="890" height="820" as="geometry" />
        </mxCell>
        <mxCell id="3N8dPOOKqorthrCRvGdw-87" value="&lt;b&gt;ref&lt;/b&gt;" style="shape=umlFrame;whiteSpace=wrap;html=1;pointerEvents=0;width=49;height=20;fillColor=#dae8fc;strokeColor=#6c8ebf;" parent="3N8dPOOKqorthrCRvGdw-85" vertex="1">
          <mxGeometry x="50" y="580" width="789" height="60" as="geometry" />
        </mxCell>
        <mxCell id="3N8dPOOKqorthrCRvGdw-88" value="&lt;b&gt;loop&lt;/b&gt;" style="shape=umlFrame;whiteSpace=wrap;html=1;pointerEvents=0;width=49;height=20;fillColor=#dae8fc;strokeColor=#6c8ebf;" parent="3N8dPOOKqorthrCRvGdw-85" vertex="1">
          <mxGeometry x="50" y="670" width="790" height="160" as="geometry" />
        </mxCell>
        <mxCell id="3N8dPOOKqorthrCRvGdw-89" value="" style="shape=umlDestroy;whiteSpace=wrap;html=1;strokeWidth=3;targetShapes=umlLifeline;" parent="3N8dPOOKqorthrCRvGdw-85" vertex="1">
          <mxGeometry x="613" y="798" width="20" height="20" as="geometry" />
        </mxCell>
        <mxCell id="3N8dPOOKqorthrCRvGdw-90" value="&lt;b&gt;ref&lt;/b&gt;" style="shape=umlFrame;whiteSpace=wrap;html=1;pointerEvents=0;width=49;height=20;fillColor=#dae8fc;strokeColor=#6c8ebf;" parent="3N8dPOOKqorthrCRvGdw-85" vertex="1">
          <mxGeometry x="408" y="720" width="332" height="60" as="geometry" />
        </mxCell>
        <mxCell id="3N8dPOOKqorthrCRvGdw-91" value="&lt;b&gt;[Encaissement = True]&lt;/b&gt;" style="text;html=1;align=center;verticalAlign=middle;resizable=0;points=[];autosize=1;strokeColor=none;fillColor=none;" parent="1" vertex="1">
          <mxGeometry x="-715" y="-422" width="150" height="30" as="geometry" />
        </mxCell>
      </root>
    </mxGraphModel>
  </diagram>
</mxfile>
